<svg width="20" height="20" viewBox="0 0 20 20" fill="none" xmlns="http://www.w3.org/2000/svg">
<rect width="20" height="20" fill="none" fill-opacity="0"/>
<path d="M10.0001 1.66669V0.916687V1.66669ZM13.0303 8.03033C13.3232 7.73744 13.3232 7.26256 13.0303 6.96967C12.7374 6.67678 12.2626 6.67678 11.9697 6.96967L13.0303 8.03033ZM6.96967 11.9697C6.67678 12.2626 6.67678 12.7374 6.96967 13.0303C7.26256 13.3232 7.73744 13.3232 8.03033 13.0303L6.96967 11.9697ZM8.03033 6.96967C7.73744 6.67678 7.26256 6.67678 6.96967 6.96967C6.67678 7.26256 6.67678 7.73744 6.96967 8.03033L8.03033 6.96967ZM11.9697 13.0303C12.2626 13.3232 12.7374 13.3232 13.0303 13.0303C13.3232 12.7374 13.3232 12.2626 13.0303 11.9697L11.9697 13.0303ZM10.0001 0.916687C4.98349 0.916687 0.916748 4.98343 0.916748 10H2.41675C2.41675 5.81186 5.81192 2.41669 10.0001 2.41669V0.916687ZM0.916748 10C0.916748 15.0166 4.98349 19.0834 10.0001 19.0834V17.5834C5.81192 17.5834 2.41675 14.1882 2.41675 10H0.916748ZM10.0001 19.0834C15.0167 19.0834 19.0834 15.0166 19.0834 10H17.5834C17.5834 14.1882 14.1882 17.5834 10.0001 17.5834V19.0834ZM19.0834 10C19.0834 4.98343 15.0167 0.916687 10.0001 0.916687V2.41669C14.1882 2.41669 17.5834 5.81186 17.5834 10H19.0834ZM11.9697 6.96967L6.96967 11.9697L8.03033 13.0303L13.0303 8.03033L11.9697 6.96967ZM8.03033 13.0303L13.0303 8.03033L11.9697 6.96967L6.96967 11.9697L8.03033 13.0303ZM6.96967 8.03033L11.9697 13.0303L13.0303 11.9697L8.03033 6.96967L6.96967 8.03033ZM13.0303 11.9697L8.03033 6.96967L6.96967 8.03033L11.9697 13.0303L13.0303 11.9697Z" fill="currentColor"/>
</svg>
