<svg width="20" height="20" viewBox="0 0 20 20" fill="none" xmlns="http://www.w3.org/2000/svg">
<rect width="20" height="20" fill="black" fill-opacity="0"/>
<path fill-rule="evenodd" clip-rule="evenodd" d="M10 0C4.47681 0 0 4.47687 0 10C0 15.5225 4.47681 20 10 20C15.5232 20 20 15.5225 20 10C20 4.47687 15.5232 0 10 0ZM7.62622 14.7281C4.97192 14.7281 2.8125 12.6075 2.8125 10.0006C2.8125 7.39374 4.97192 5.27246 7.62622 5.27246C8.78687 5.27246 9.90869 5.68433 10.7837 6.43182L9.55933 7.81372C9.02368 7.3562 8.33691 7.1037 7.62573 7.1037C5.99927 7.1037 4.67627 8.40308 4.67627 9.99994C4.67627 11.5969 5.99927 12.8962 7.62573 12.8962C9.00122 12.8962 9.90186 12.2368 10.1943 11.0543H7.64819V9.22308H12.1626V10.1387C12.1631 12.8831 10.3401 14.7281 7.62622 14.7281ZM15.792 9.22375H17.1882V10.34H15.792V11.7356H14.6755V10.34H13.28V9.22375H14.6755V7.82812H15.792V9.22375Z" fill="#111113"/>
</svg>
