<svg width="20" height="20" viewBox="0 0 20 20" fill="none" xmlns="http://www.w3.org/2000/svg">
<path d="M8.43781 7.45333L11.51 3.2C12.0923 2.4 12.8408 2 13.7632 2C14.5117 2 15.1611 2.254 15.7106 2.76267C16.2573 3.27267 16.5317 3.87933 16.5317 4.588C16.5317 5.11067 16.3871 5.574 16.096 5.974L13.3261 9.82L16.7146 13.922C17.0526 14.33 17.2222 14.8087 17.2222 15.3553C17.2222 16.0793 16.9562 16.7007 16.4228 17.2207C15.8907 17.74 15.2455 18 14.488 18C13.6578 18 13.0238 17.742 12.5881 17.2267L8.4385 12.282V15.008C8.4385 15.7867 8.29746 16.3907 8.01468 16.8227C7.50008 17.6073 6.75577 18 5.77127 18C4.87614 18 4.1821 17.7093 3.69125 17.134C3.23042 16.6013 3 15.8967 3 15.0193V4.91C3 4.08 3.2346 3.394 3.70102 2.85467C4.18839 2.28533 4.86567 2 5.73007 2C6.55329 2 7.23825 2.28533 7.78706 2.85467C8.09288 3.17133 8.28629 3.49 8.36729 3.81467C8.41616 4.01467 8.4406 4.38667 8.4406 4.93467V7.45333H8.43781V7.45333Z" fill="currentColor"/>
</svg>
