<svg width="20" height="20" viewBox="0 0 20 20" fill="none" xmlns="http://www.w3.org/2000/svg">
<rect width="20" height="20" fill="black" fill-opacity="0"/>
<path d="M18.7635 5.61442C19.1028 5.37689 19.1854 4.90924 18.9478 4.5699C18.7103 4.23057 18.2427 4.14804 17.9033 4.38558L18.7635 5.61442ZM10.0001 10.8333L9.56998 11.4478C9.82822 11.6285 10.1719 11.6285 10.4302 11.4478L10.0001 10.8333ZM2.09684 4.38558C1.75751 4.14804 1.28986 4.23057 1.05232 4.5699C0.814788 4.90924 0.897314 5.37689 1.23665 5.61442L2.09684 4.38558ZM3.33341 4.08331H16.6667V2.58331H3.33341V4.08331ZM16.6667 4.08331C17.1692 4.08331 17.5834 4.49753 17.5834 4.99998H19.0834C19.0834 3.6691 17.9976 2.58331 16.6667 2.58331V4.08331ZM17.5834 4.99998V15H19.0834V4.99998H17.5834ZM17.5834 15C17.5834 15.5024 17.1692 15.9166 16.6667 15.9166V17.4166C17.9976 17.4166 19.0834 16.3309 19.0834 15H17.5834ZM16.6667 15.9166H3.33341V17.4166H16.6667V15.9166ZM3.33341 15.9166C2.83096 15.9166 2.41675 15.5024 2.41675 15H0.916748C0.916748 16.3309 2.00253 17.4166 3.33341 17.4166V15.9166ZM2.41675 15V4.99998H0.916748V15H2.41675ZM2.41675 4.99998C2.41675 4.49753 2.83096 4.08331 3.33341 4.08331V2.58331C2.00253 2.58331 0.916748 3.6691 0.916748 4.99998H2.41675ZM17.9033 4.38558L9.56998 10.2189L10.4302 11.4478L18.7635 5.61442L17.9033 4.38558ZM10.4302 10.2189L2.09684 4.38558L1.23665 5.61442L9.56998 11.4478L10.4302 10.2189Z" fill="#111113"/>
</svg>
