<svg width="20" height="20" viewBox="0 0 20 20" fill="none" xmlns="http://www.w3.org/2000/svg">
<rect width="20" height="20" fill-opacity="0"/>
<path d="M2.5 8.83331C2.08579 8.83331 1.75 9.1691 1.75 9.58331C1.75 9.99753 2.08579 10.3333 2.5 10.3333V8.83331ZM15.5 10.3333C15.9142 10.3333 16.25 9.99753 16.25 9.58331C16.25 9.1691 15.9142 8.83331 15.5 8.83331V10.3333ZM2.5 3.83331C2.08579 3.83331 1.75 4.1691 1.75 4.58331C1.75 4.99753 2.08579 5.33331 2.5 5.33331V3.83331ZM17.5 5.33331C17.9142 5.33331 18.25 4.99753 18.25 4.58331C18.25 4.1691 17.9142 3.83331 17.5 3.83331V5.33331ZM2.5 13.8333C2.08579 13.8333 1.75 14.1691 1.75 14.5833C1.75 14.9975 2.08579 15.3333 2.5 15.3333V13.8333ZM12.5 15.3333C12.9142 15.3333 13.25 14.9975 13.25 14.5833C13.25 14.1691 12.9142 13.8333 12.5 13.8333V15.3333ZM2.5 10.3333H15.5V8.83331H2.5V10.3333ZM2.5 5.33331H17.5V3.83331H2.5V5.33331ZM2.5 15.3333H12.5V13.8333H2.5V15.3333Z" fill="currentColor"/>
</svg>
