<svg width="20" height="20" viewBox="0 0 20 20" fill="none" xmlns="http://www.w3.org/2000/svg">
<rect width="20" height="20" fill="black" fill-opacity="0"/>
<path d="M9.99984 8.41669C9.12539 8.41669 8.4165 9.12557 8.4165 10H9.9165C9.9165 9.954 9.95381 9.91669 9.99984 9.91669V8.41669ZM8.4165 10C8.4165 10.8745 9.12539 11.5834 9.99984 11.5834V10.0834C9.95381 10.0834 9.9165 10.046 9.9165 10H8.4165ZM9.99984 11.5834C10.8743 11.5834 11.5832 10.8745 11.5832 10H10.0832C10.0832 10.046 10.0459 10.0834 9.99984 10.0834V11.5834ZM11.5832 10C11.5832 9.12557 10.8743 8.41669 9.99984 8.41669V9.91669C10.0459 9.91669 10.0832 9.954 10.0832 10H11.5832ZM15.8333 8.41669C14.9589 8.41669 14.25 9.12557 14.25 10H15.75C15.75 9.954 15.7873 9.91669 15.8333 9.91669V8.41669ZM14.25 10C14.25 10.8745 14.9589 11.5834 15.8333 11.5834V10.0834C15.7873 10.0834 15.75 10.046 15.75 10H14.25ZM15.8333 11.5834C16.7078 11.5834 17.4167 10.8745 17.4167 10H15.9167C15.9167 10.046 15.8794 10.0834 15.8333 10.0834V11.5834ZM17.4167 10C17.4167 9.12557 16.7078 8.41669 15.8333 8.41669V9.91669C15.8794 9.91669 15.9167 9.954 15.9167 10H17.4167ZM4.16659 8.41669C3.29213 8.41669 2.58325 9.12557 2.58325 10H4.08325C4.08325 9.954 4.12056 9.91669 4.16659 9.91669V8.41669ZM2.58325 10C2.58325 10.8745 3.29213 11.5834 4.16659 11.5834V10.0834C4.12056 10.0834 4.08325 10.046 4.08325 10H2.58325ZM4.16659 11.5834C5.04104 11.5834 5.74992 10.8745 5.74992 10H4.24992C4.24992 10.046 4.21261 10.0834 4.16659 10.0834V11.5834ZM5.74992 10C5.74992 9.12557 5.04104 8.41669 4.16659 8.41669V9.91669C4.21261 9.91669 4.24992 9.954 4.24992 10H5.74992Z" fill="#111113"/>
</svg>
