<svg width="117" height="19" fill="none" xmlns="http://www.w3.org/2000/svg">
<path d="M0.460938 1.19531V18H4.07031V12.4805H7.53906C9.27344 12.4805 10.7031 11.9414 11.8398 10.8633C12.9648 9.78516 13.5391 8.4375 13.5391 6.84375C13.5391 5.25 12.9648 3.90234 11.8281 2.82422C10.6914 1.74609 9.26172 1.20703 7.53906 1.20703L0.460938 1.19531ZM7.42188 4.45312C8.13672 4.45312 8.73438 4.67578 9.21484 5.14453C9.69531 5.61328 9.94141 6.17578 9.94141 6.85547C9.94141 7.52344 9.69531 8.08594 9.21484 8.55469C8.73438 9.01172 8.13672 9.24609 7.42188 9.24609H4.07031V4.45312H7.42188Z" fill="currentColor"/>
<path d="M28.4219 10.9219H24.332L26.3828 5.40234L28.4219 10.9219ZM29.6172 14.0391L31.0586 18H34.9023L28.293 1.19531H24.4609L17.8516 18H21.6953L23.1367 14.0391H29.6172Z" fill="currentColor"/>
<path d="M48.4727 0.84375C45.9062 0.84375 43.7383 1.69922 41.9805 3.41016C40.2227 5.12109 39.3438 7.18359 39.3438 9.59766C39.3438 12.0117 40.2227 14.0859 41.9805 15.7969C43.7383 17.5078 45.9062 18.3633 48.4727 18.3633C49.3398 18.3633 50.1836 18.2461 51.0039 18C51.8242 17.7656 52.4805 17.4961 52.9844 17.2031C53.4883 16.9102 53.957 16.5703 54.4023 16.1836C54.8477 15.7969 55.1289 15.5273 55.2578 15.375C55.3867 15.2227 55.4805 15.0938 55.5508 15L53.3828 12.7148L53.1953 12.9609C53.0664 13.1367 52.8672 13.3359 52.5859 13.5703C52.3047 13.8047 51.9766 14.0391 51.6133 14.2734C51.2383 14.5078 50.7812 14.707 50.2188 14.8711C49.6562 15.0352 49.082 15.1172 48.4727 15.1172C46.9023 15.1172 45.5898 14.5898 44.5352 13.5352C43.4805 12.4805 42.9531 11.168 42.9531 9.59766C42.9531 8.02734 43.4805 6.71484 44.5352 5.66016C45.5898 4.60547 46.9023 4.07812 48.4727 4.07812C49.0352 4.07812 49.5977 4.17188 50.1484 4.34766C50.6875 4.52344 51.1328 4.71094 51.4727 4.92188C51.8008 5.13281 52.1172 5.36719 52.3984 5.63672C52.6797 5.91797 52.8672 6.10547 52.9492 6.22266C53.0312 6.33984 53.1016 6.42188 53.1484 6.48047L55.4336 4.19531L55.1641 3.84375C54.9883 3.62109 54.707 3.33984 54.3086 3.01172C53.9102 2.68359 53.4648 2.35547 52.9492 2.02734C52.4336 1.69922 51.7891 1.42969 50.9922 1.19531C50.1953 0.960938 49.3516 0.84375 48.4727 0.84375Z" fill="currentColor"/>
<path d="M61.4219 18H65.0312V1.19531H61.4219V18Z" fill="currentColor"/>
<path d="M72.3438 1.19531V18H75.9531V11.4023H82.7852V8.15625H75.9531V4.44141H84.707V1.19531H72.3438Z" fill="currentColor"/>
<path d="M90.8125 18H94.4219V1.19531H90.8125V18Z" fill="currentColor"/>
<path d="M109.902 0.84375C107.336 0.84375 105.168 1.69922 103.41 3.41016C101.652 5.12109 100.773 7.18359 100.773 9.59766C100.773 12.0117 101.652 14.0859 103.41 15.7969C105.168 17.5078 107.336 18.3633 109.902 18.3633C110.77 18.3633 111.613 18.2461 112.434 18C113.254 17.7656 113.91 17.4961 114.414 17.2031C114.918 16.9102 115.387 16.5703 115.832 16.1836C116.277 15.7969 116.559 15.5273 116.688 15.375C116.816 15.2227 116.91 15.0938 116.98 15L114.812 12.7148L114.625 12.9609C114.496 13.1367 114.297 13.3359 114.016 13.5703C113.734 13.8047 113.406 14.0391 113.043 14.2734C112.668 14.5078 112.211 14.707 111.648 14.8711C111.086 15.0352 110.512 15.1172 109.902 15.1172C108.332 15.1172 107.02 14.5898 105.965 13.5352C104.91 12.4805 104.383 11.168 104.383 9.59766C104.383 8.02734 104.91 6.71484 105.965 5.66016C107.02 4.60547 108.332 4.07812 109.902 4.07812C110.465 4.07812 111.027 4.17188 111.578 4.34766C112.117 4.52344 112.562 4.71094 112.902 4.92188C113.23 5.13281 113.547 5.36719 113.828 5.63672C114.109 5.91797 114.297 6.10547 114.379 6.22266C114.461 6.33984 114.531 6.42188 114.578 6.48047L116.863 4.19531L116.594 3.84375C116.418 3.62109 116.137 3.33984 115.738 3.01172C115.34 2.68359 114.895 2.35547 114.379 2.02734C113.863 1.69922 113.219 1.42969 112.422 1.19531C111.625 0.960938 110.781 0.84375 109.902 0.84375Z" fill="currentColor"/>
</svg>
