<svg width="20" height="20" viewBox="0 0 20 20" fill="none" xmlns="http://www.w3.org/2000/svg">
<rect width="20" height="20" fill="black" fill-opacity="0"/>
<path fill-rule="evenodd" clip-rule="evenodd" d="M10 0C4.479 0 0 4.477 0 10C7.06778e-05 12.0111 0.606561 13.9754 1.74027 15.6364C2.87399 17.2975 4.48223 18.5781 6.355 19.311C6.268 18.521 6.189 17.306 6.39 16.443C6.573 15.662 7.563 11.472 7.563 11.472C7.563 11.472 7.263 10.872 7.263 9.987C7.263 8.599 8.071 7.558 9.073 7.558C9.927 7.558 10.338 8.199 10.338 8.967C10.338 9.826 9.793 11.108 9.511 12.297C9.273 13.293 10.011 14.103 10.991 14.103C12.767 14.103 14.135 12.23 14.135 9.526C14.135 7.132 12.415 5.458 9.957 5.458C7.112 5.458 5.444 7.592 5.444 9.798C5.444 10.657 5.773 11.578 6.185 12.079C6.268 12.179 6.279 12.267 6.257 12.367C6.182 12.682 6.012 13.362 5.977 13.5C5.934 13.683 5.834 13.723 5.643 13.634C4.395 13.053 3.613 11.227 3.613 9.759C3.613 6.605 5.905 3.709 10.222 3.709C13.69 3.709 16.387 6.181 16.387 9.484C16.387 12.93 14.212 15.705 11.196 15.705C10.183 15.705 9.231 15.178 8.904 14.555L8.279 16.933C8.054 17.801 7.445 18.89 7.037 19.553C7.974 19.843 8.968 20 9.999 20C15.521 20 20 15.523 20 10C20 4.478 15.521 0.000999928 10 0.000999928V0Z" fill="black"/>
</svg>
