<svg width="20" height="20" viewBox="0 0 20 20" fill="none" xmlns="http://www.w3.org/2000/svg">
<rect width="20" height="20" fill="black" fill-opacity="0"/>
<path d="M10.0001 1.66669V0.916687V1.66669ZM8.3335 6.66669L8.74952 6.04265C8.51938 5.88922 8.22347 5.87492 7.9796 6.00543C7.73573 6.13595 7.5835 6.39009 7.5835 6.66669H8.3335ZM13.3335 10L13.7495 10.6241C13.9582 10.485 14.0835 10.2508 14.0835 10C14.0835 9.74926 13.9582 9.51508 13.7495 9.37598L13.3335 10ZM8.3335 13.3334H7.5835C7.5835 13.61 7.73573 13.8641 7.9796 13.9946C8.22347 14.1251 8.51938 14.1108 8.74952 13.9574L8.3335 13.3334ZM10.0001 0.916687C4.98349 0.916687 0.916748 4.98343 0.916748 10H2.41675C2.41675 5.81186 5.81192 2.41669 10.0001 2.41669V0.916687ZM0.916748 10C0.916748 15.0166 4.98349 19.0834 10.0001 19.0834V17.5834C5.81192 17.5834 2.41675 14.1882 2.41675 10H0.916748ZM10.0001 19.0834C15.0167 19.0834 19.0834 15.0166 19.0834 10H17.5834C17.5834 14.1882 14.1882 17.5834 10.0001 17.5834V19.0834ZM19.0834 10C19.0834 4.98343 15.0167 0.916687 10.0001 0.916687V2.41669C14.1882 2.41669 17.5834 5.81186 17.5834 10H19.0834ZM7.91747 7.29072L12.9175 10.6241L13.7495 9.37598L8.74952 6.04265L7.91747 7.29072ZM12.9175 9.37598L7.91747 12.7093L8.74952 13.9574L13.7495 10.6241L12.9175 9.37598ZM9.0835 13.3334V6.66669H7.5835V13.3334H9.0835Z" fill="#111113"/>
</svg>
