<svg width="20" height="20" viewBox="0 0 20 20" fill="none" xmlns="http://www.w3.org/2000/svg">
<rect width="20" height="20" fill="black" fill-opacity="0"/>
<path d="M10.75 4.16669C10.75 3.75247 10.4142 3.41669 10 3.41669C9.58579 3.41669 9.25 3.75247 9.25 4.16669H10.75ZM9.25 15.8334C9.25 16.2476 9.58579 16.5834 10 16.5834C10.4142 16.5834 10.75 16.2476 10.75 15.8334H9.25ZM4.16675 9.25C3.75253 9.25 3.41675 9.58579 3.41675 10C3.41675 10.4142 3.75253 10.75 4.16675 10.75V9.25ZM15.8334 10.75C16.2476 10.75 16.5834 10.4142 16.5834 10C16.5834 9.58579 16.2476 9.25 15.8334 9.25V10.75ZM9.25 4.16669V15.8334H10.75V4.16669H9.25ZM4.16675 10.75H15.8334V9.25H4.16675V10.75Z" fill="currentColor"/>
</svg>
