<svg width="20" height="20" viewBox="0 0 20 20" fill="none" xmlns="http://www.w3.org/2000/svg">
<rect width="20" height="20" fill="black" fill-opacity="0"/>
<path d="M3.33325 8.41663C2.91904 8.41663 2.58325 8.75241 2.58325 9.16663C2.58325 9.58084 2.91904 9.91663 3.33325 9.91663V8.41663ZM10.0833 16.6666C10.0833 17.0808 10.419 17.4166 10.8333 17.4166C11.2475 17.4166 11.5833 17.0808 11.5833 16.6666H10.0833ZM3.33325 2.58331C2.91904 2.58331 2.58325 2.9191 2.58325 3.33331C2.58325 3.74753 2.91904 4.08331 3.33325 4.08331V2.58331ZM15.9166 16.6666C15.9166 17.0809 16.2524 17.4166 16.6666 17.4166C17.0808 17.4166 17.4166 17.0809 17.4166 16.6666H15.9166ZM3.33325 9.91663C7.06117 9.91663 10.0833 12.9387 10.0833 16.6666H11.5833C11.5833 12.1103 7.8896 8.41663 3.33325 8.41663V9.91663ZM3.33325 4.08331C10.2828 4.08331 15.9166 9.71706 15.9166 16.6666H17.4166C17.4166 8.88864 11.1113 2.58331 3.33325 2.58331V4.08331ZM4.16659 14.25C3.29213 14.25 2.58325 14.9589 2.58325 15.8333H4.08325C4.08325 15.7873 4.12056 15.75 4.16659 15.75V14.25ZM2.58325 15.8333C2.58325 16.7078 3.29213 17.4167 4.16659 17.4167V15.9167C4.12056 15.9167 4.08325 15.8794 4.08325 15.8333H2.58325ZM4.16659 17.4167C5.04104 17.4167 5.74992 16.7078 5.74992 15.8333H4.24992C4.24992 15.8794 4.21261 15.9167 4.16659 15.9167V17.4167ZM5.74992 15.8333C5.74992 14.9589 5.04104 14.25 4.16659 14.25V15.75C4.21261 15.75 4.24992 15.7873 4.24992 15.8333H5.74992Z" fill="#111113"/>
</svg>
