<svg xmlns="http://www.w3.org/2000/svg" viewBox="0 0 20 20" width="20" height="20" fill="currentColor">
  <path d="M16.97 18.03a.75.75 0 1 0 1.06-1.06l-1.06 1.06zm-2.565-4.685a.75.75 0 1 0-1.06 1.06l1.06-1.06zM9.167 1.75A7.417 7.417 0 0 0 1.75 9.167h1.5A5.917 5.917 0 0 1 9.167 3.25v-1.5zM1.75 9.167a7.417 7.417 0 0 0 7.417 7.416v-1.5A5.917 5.917 0 0 1 3.25 9.167h-1.5zm7.417 7.416a7.417 7.417 0 0 0 7.416-7.416h-1.5a5.917 5.917 0 0 1-5.916 5.916v1.5zm7.416-7.416A7.417 7.417 0 0 0 9.167 1.75v1.5a5.917 5.917 0 0 1 5.916 5.917h1.5zm1.447 7.803l-3.625-3.625-1.06 1.06 3.625 3.625 1.06-1.06zm-4.685-2.565l3.625 3.625 1.06-1.06-3.625-3.625-1.06 1.06z" fill="currentColor" />
</svg>