<svg width="20" height="20" viewBox="0 0 20 20" fill="none">
  <path d="M2 1.25C1.58579 1.25 1.25 1.58579 1.25 2C1.25 2.41421 1.58579 2.75 2 2.75V1.25ZM4.90909 2L5.64577 1.85926C5.57822 1.50571 5.26903 1.25 4.90909 1.25V2ZM6.85818 12.2019L7.59506 12.0622L7.59486 12.0612L6.85818 12.2019ZM8.31273 13.4286V12.6786C8.30771 12.6786 8.30269 12.6786 8.29767 12.6787L8.31273 13.4286ZM15.3818 13.4286L15.3969 12.6787C15.3919 12.6786 15.3868 12.6786 15.3818 12.6786V13.4286ZM16.8364 12.2019L17.5733 12.3416L17.5742 12.3362L16.8364 12.2019ZM18 5.80952L18.7379 5.94384C18.7777 5.72502 18.7184 5.4998 18.5759 5.32902C18.4334 5.15825 18.2224 5.05952 18 5.05952V5.80952ZM5.63636 5.05952C5.22215 5.05952 4.88636 5.39531 4.88636 5.80952C4.88636 6.22374 5.22215 6.55952 5.63636 6.55952V5.05952ZM7.81834 15.7263C6.96996 15.7263 6.34106 16.4364 6.34106 17.2382H7.84106C7.84106 17.2235 7.84618 17.2177 7.84659 17.2173C7.84675 17.2171 7.84467 17.2194 7.83909 17.2218C7.83288 17.2246 7.82524 17.2263 7.81834 17.2263V15.7263ZM6.34106 17.2382C6.34106 18.0399 6.96996 18.7501 7.81834 18.7501V17.2501C7.82524 17.2501 7.83288 17.2517 7.83909 17.2545C7.84467 17.257 7.84675 17.2592 7.84659 17.2591C7.84618 17.2586 7.84106 17.2528 7.84106 17.2382H6.34106ZM7.81834 18.7501C8.66671 18.7501 9.29561 18.0399 9.29561 17.2382H7.79561C7.79561 17.2528 7.79049 17.2586 7.79008 17.2591C7.78993 17.2592 7.79201 17.257 7.79759 17.2545C7.80379 17.2517 7.81143 17.2501 7.81834 17.2501V18.7501ZM9.29561 17.2382C9.29561 16.4364 8.66671 15.7263 7.81834 15.7263V17.2263C7.81143 17.2263 7.80379 17.2246 7.79759 17.2218C7.79201 17.2194 7.78993 17.2171 7.79008 17.2173C7.79049 17.2177 7.79561 17.2235 7.79561 17.2382H9.29561ZM15.8183 15.7263C14.97 15.7263 14.3411 16.4364 14.3411 17.2382H15.8411C15.8411 17.2235 15.8462 17.2177 15.8466 17.2173C15.8467 17.2171 15.8447 17.2194 15.8391 17.2218C15.8329 17.2246 15.8252 17.2263 15.8183 17.2263V15.7263ZM14.3411 17.2382C14.3411 18.0399 14.97 18.7501 15.8183 18.7501V17.2501C15.8252 17.2501 15.8329 17.2517 15.8391 17.2545C15.8447 17.257 15.8467 17.2592 15.8466 17.2591C15.8462 17.2586 15.8411 17.2528 15.8411 17.2382H14.3411ZM15.8183 18.7501C16.6667 18.7501 17.2956 18.0399 17.2956 17.2382H15.7956C15.7956 17.2528 15.7905 17.2586 15.7901 17.2591C15.7899 17.2592 15.792 17.257 15.7976 17.2545C15.8038 17.2517 15.8114 17.2501 15.8183 17.2501V18.7501ZM17.2956 17.2382C17.2956 16.4364 16.6667 15.7263 15.8183 15.7263V17.2263C15.8114 17.2263 15.8038 17.2246 15.7976 17.2218C15.792 17.2194 15.7899 17.2171 15.7901 17.2173C15.7905 17.2177 15.7956 17.2235 15.7956 17.2382H17.2956ZM2 2.75H4.90909V1.25H2V2.75ZM4.17241 2.14074L6.12151 12.3426L7.59486 12.0612L5.64577 1.85926L4.17241 2.14074ZM6.12131 12.3416C6.32208 13.4006 7.23288 14.2004 8.32778 14.1784L8.29767 12.6787C7.98368 12.685 7.66881 12.4512 7.59505 12.0622L6.12131 12.3416ZM8.31273 14.1786H15.3818V12.6786H8.31273V14.1786ZM15.3668 14.1784C16.4617 14.2004 17.3725 13.4006 17.5732 12.3416L16.0995 12.0622C16.0257 12.4512 15.7109 12.685 15.3969 12.6787L15.3668 14.1784ZM17.5742 12.3362L18.7379 5.94384L17.2621 5.6752L16.0985 12.0676L17.5742 12.3362ZM18 5.05952H5.63636V6.55952H18V5.05952Z" fill="currentColor"/>
</svg>