<svg width="20" height="20" viewBox="0 0 20 20" fill="none" xmlns="http://www.w3.org/2000/svg">
<rect width="20" height="20" fill="black" fill-opacity="0"/>
<path fill-rule="evenodd" clip-rule="evenodd" d="M19.1666 2.53193C18.3686 3.09483 17.485 3.52535 16.5499 3.80693C15.5219 2.62488 13.8652 2.21036 12.4017 2.76897C10.9381 3.32759 9.97892 4.74051 9.99992 6.30693V7.14026C7.02547 7.21739 4.20994 5.80024 2.49992 3.36526C2.49992 3.36526 -0.833415 10.8653 6.66659 14.1986C4.95036 15.3636 2.90588 15.9477 0.833252 15.8653C8.33325 20.0319 17.4999 15.8653 17.4999 6.28193C17.4992 6.04981 17.4768 5.81826 17.4333 5.59026C18.2838 4.75151 18.8839 3.69252 19.1666 2.53193Z" fill="#111113"/>
</svg>
