<svg width="20" height="20" viewBox="0 0 20 20" fill="none" xmlns="http://www.w3.org/2000/svg">
<path d="M18.9823 5.60919C18.9036 7.36265 17.6781 9.76634 15.3119 12.8158C12.861 16.0009 10.7925 17.5932 9.09455 17.5932C8.03783 17.5932 7.1611 16.6227 6.42987 14.6825L4.9914 9.3471C4.45216 7.40915 3.87543 6.43867 3.25744 6.43867C3.1232 6.43867 2.65296 6.72217 1.84673 7.28765L1 6.19493C1.88873 5.41195 2.76321 4.63197 3.62569 3.84899C4.80991 2.82301 5.69938 2.28528 6.29112 2.22978C7.69134 2.09478 8.55306 3.05476 8.87631 5.10821C9.22505 7.3229 9.46804 8.69987 9.60454 9.23835C10.0088 11.0758 10.4528 11.9938 10.9365 11.9938C11.313 11.9938 11.8785 11.3968 12.6352 10.2051C13.3882 9.01336 13.7902 8.10738 13.8442 7.48415C13.9522 6.45592 13.5479 5.93844 12.6337 5.93844C12.2032 5.93844 11.7585 6.02918 11.301 6.23168C12.1905 3.33075 13.8764 1.91403 16.3724 2.00403C18.2271 2.04903 19.0933 3.252 18.9921 5.60169L18.9823 5.60919V5.60919Z" fill="currentColor"/>
</svg>
