<svg width="20" height="20" viewBox="0 0 20 20" fill="none" xmlns="http://www.w3.org/2000/svg">
<path d="M18.6242 5.94248C18.5199 5.56867 18.3209 5.22808 18.0465 4.95365C17.772 4.67922 17.4314 4.48023 17.0576 4.3759C15.6546 4.00001 10.008 4.00001 10.008 4.00001C10.008 4.00001 4.37567 3.99251 2.95839 4.3759C2.58457 4.48023 2.24399 4.67922 1.96956 4.95365C1.69513 5.22808 1.49613 5.56867 1.39181 5.94248C1.12585 7.3789 0.99473 8.83703 1.00016 10.2979C0.995757 11.7532 1.12687 13.2057 1.39181 14.6367C1.49613 15.0105 1.69513 15.3511 1.96956 15.6255C2.24399 15.9 2.58457 16.099 2.95839 16.2033C4.35991 16.5799 10.008 16.5799 10.008 16.5799C10.008 16.5799 15.6396 16.5799 17.0576 16.2033C17.4314 16.099 17.772 15.9 18.0465 15.6255C18.3209 15.3511 18.5199 15.0105 18.6242 14.6367C18.8836 13.2052 19.0092 11.7526 18.9994 10.2979C19.0102 8.83755 18.8846 7.37942 18.6242 5.94248V5.94248ZM8.20584 12.9921V7.59535L12.9056 10.2979L8.20584 12.9921Z" fill="currentColor"/>
</svg>
